<svg width="73" height="28" viewBox="0 0 73 28" fill="none" xmlns="http://www.w3.org/2000/svg">
<path d="M11.74 27.28H8.52H1.24C0.12 18.992 0.036 11.572 0.596 3.284C3.34 3.144 5.776 3.088 8.52 3.088H10.48C18.544 3.312 22.436 5.58 22.436 10.704C22.436 12.356 21.96 13.924 20.364 15.156C22.212 16.22 23.22 17.788 23.22 20.308C23.22 25.348 18.964 27.28 11.74 27.28ZM8.436 12.664C9.192 12.72 9.948 12.72 10.704 12.72C12.58 12.692 14.064 12.44 14.064 11.292C14.064 10.116 12.58 9.976 10.788 9.948C10.032 9.948 9.22 9.976 8.464 10.032C8.408 10.928 8.408 11.796 8.436 12.664ZM8.576 17.872C8.52 18.852 8.52 19.86 8.576 20.868C9.36 20.924 10.172 20.924 10.928 20.924C13 20.896 14.512 20.672 14.512 19.328C14.512 18.068 13 17.872 11.012 17.872H9.108H8.576ZM25.7302 27.14C25.2822 20.952 25.1702 14.988 25.3942 8.8H33.6262C33.8502 14.988 33.7382 20.952 33.2902 27.14H25.7302ZM29.5102 8.184C26.6542 8.184 24.9742 6.616 24.9742 4.152C24.9742 1.744 26.6542 0.119999 29.5102 0.119999C32.3662 0.119999 34.0462 1.772 34.0462 4.152C34.0462 6.588 32.3662 8.184 29.5102 8.184ZM46.1811 27.7C41.3371 27.56 38.7331 25.208 38.5651 18.32L38.5091 15.688L35.5411 15.604V8.8L38.5091 8.716L38.6211 4.32H46.8251L46.8811 8.688L50.9411 8.8V15.604L46.8531 15.716L46.8251 16.556C46.7691 18.656 46.9091 19.552 47.6651 19.944C48.6451 20.42 49.8771 20.196 50.8011 20.084L51.2211 27.112C49.8491 27.504 48.1971 27.756 46.1811 27.7ZM63.3127 27.7C56.8167 27.588 52.2807 23.892 52.2807 17.9C52.2807 12.132 56.2567 8.324 62.9767 8.324C69.2487 8.324 72.7487 11.824 72.8327 16.864C72.8607 17.844 72.7767 19.188 72.5527 19.972C68.0727 20.168 64.1527 20.196 60.6527 20.056C61.0727 20.924 61.8847 21.4 63.2567 21.596C65.6927 21.96 68.5487 21.568 70.8447 20.728L71.6847 26.496C69.8087 27.252 67.0087 27.756 63.3127 27.7ZM60.4007 16.276C62.3887 16.388 64.0687 16.388 65.4407 16.276C65.3287 14.708 64.4047 14.204 63.0607 14.204C61.6887 14.204 60.7367 14.736 60.4007 16.276Z" fill="#0073FF"/>
</svg>
