<svg width="105" height="41" viewBox="0 0 105 41" fill="none" xmlns="http://www.w3.org/2000/svg">
<path d="M12.6 39.4H2.2C1.26667 32.36 0.8 25.4 0.8 18.52C0.8 14.1733 0.96 9.70667 1.28 5.12C4.93333 4.93333 8.70667 4.84 12.6 4.84H15.4C21.2133 5 25.5067 5.94666 28.28 7.68C31.08 9.41333 32.48 12.0933 32.48 15.72C32.48 17 32.2533 18.1733 31.8 19.24C31.3467 20.3067 30.5867 21.2533 29.52 22.08C30.88 22.8533 31.8933 23.84 32.56 25.04C33.2533 26.2133 33.6 27.68 33.6 29.44C33.6 32.9333 32.2 35.4667 29.4 37.04C26.6267 38.6133 22.56 39.4 17.2 39.4H12.6ZM12.48 18.52C13.2 18.5733 14.28 18.6 15.72 18.6C17.24 18.5733 18.4133 18.4133 19.24 18.12C20.0933 17.8267 20.52 17.3067 20.52 16.56C20.52 15.7867 20.12 15.28 19.32 15.04C18.5467 14.8 17.3867 14.6667 15.84 14.64C14.72 14.64 13.6133 14.68 12.52 14.76C12.4667 15.7733 12.44 16.5067 12.44 16.96L12.48 18.52ZM12.68 25.96C12.6533 26.4133 12.64 27.12 12.64 28.08C12.64 29.04 12.6533 29.76 12.68 30.24C13.4267 30.2933 14.5467 30.32 16.04 30.32C17.7467 30.2933 19.0267 30.1333 19.88 29.84C20.7333 29.52 21.16 28.92 21.16 28.04C21.16 27.2133 20.7333 26.6667 19.88 26.4C19.0267 26.1067 17.7867 25.96 16.16 25.96H13.44H12.68ZM37.1859 39.2C36.7593 33.4933 36.5459 27.68 36.5459 21.76C36.5459 18.56 36.5993 15.64 36.7059 13H48.4659C48.5726 15.64 48.6259 18.56 48.6259 21.76C48.6259 27.68 48.4126 33.4933 47.9859 39.2H37.1859ZM42.5859 12.12C40.5593 12.12 38.9726 11.6 37.8259 10.56C36.6793 9.52 36.1059 8.12 36.1059 6.36C36.1059 4.62666 36.6793 3.24 37.8259 2.2C38.9726 1.13333 40.5593 0.599998 42.5859 0.599998C44.5859 0.599998 46.1593 1.13333 47.3059 2.2C48.4793 3.24 49.0659 4.62666 49.0659 6.36C49.0659 8.12 48.4926 9.52 47.3459 10.56C46.1993 11.6 44.6126 12.12 42.5859 12.12ZM67.2016 40C64.6149 40 62.4816 39.5733 60.8016 38.72C59.1482 37.8933 57.8682 36.4933 56.9616 34.52C56.0816 32.5733 55.6016 29.9333 55.5216 26.6L55.4416 22.84L51.2016 22.72V13L55.4416 12.88L55.6016 6.6H67.3216L67.4016 12.84L73.2016 13V22.72L67.3616 22.88L67.3216 24.08C67.2682 25.6533 67.3216 26.7867 67.4816 27.48C67.6416 28.1733 67.9882 28.6533 68.5216 28.92C69.0549 29.1867 69.7616 29.32 70.6416 29.32C71.0149 29.32 71.8016 29.2533 73.0016 29.12L73.6016 39.16C71.7082 39.72 69.5749 40 67.2016 40ZM90.8753 40C87.782 39.9467 85.0486 39.3467 82.6753 38.2C80.302 37.0533 78.4486 35.44 77.1153 33.36C75.782 31.2533 75.1153 28.8 75.1153 26C75.1153 23.2533 75.7153 20.8533 76.9153 18.8C78.142 16.7467 79.902 15.16 82.1953 14.04C84.5153 12.8933 87.2486 12.32 90.3953 12.32C93.3286 12.32 95.8353 12.84 97.9153 13.88C100.022 14.8933 101.622 16.32 102.715 18.16C103.835 19.9733 104.422 22.0933 104.475 24.52C104.502 25.2667 104.475 26.0667 104.395 26.92C104.342 27.7467 104.235 28.4267 104.075 28.96C100.369 29.12 96.8886 29.2 93.6353 29.2C91.342 29.2 89.1553 29.16 87.0753 29.08C87.3686 29.6933 87.8086 30.1867 88.3953 30.56C89.0086 30.9067 89.8086 31.1467 90.7953 31.28C91.782 31.4133 92.702 31.48 93.5553 31.48C96.2753 31.48 98.9686 31 101.635 30.04L102.835 38.28C99.7953 39.5067 95.8086 40.08 90.8753 40ZM86.7153 23.68C88.1553 23.76 89.462 23.8 90.6353 23.8C91.862 23.8 92.9553 23.76 93.9153 23.68C93.8353 22.6133 93.502 21.8533 92.9153 21.4C92.3286 20.9467 91.5286 20.72 90.5153 20.72C89.4753 20.72 88.6353 20.9467 87.9953 21.4C87.382 21.8533 86.9553 22.6133 86.7153 23.68Z" fill="#6DF2A5"/>
</svg>
