<svg width="20" height="23" viewBox="0 0 20 23" fill="none" xmlns="http://www.w3.org/2000/svg">
<path fill-rule="evenodd" clip-rule="evenodd" d="M17.5435 4.71795L16.6012 20.779C16.5661 21.3798 16.3032 21.9445 15.8665 22.3573C15.4297 22.7702 14.8521 23.0001 14.2518 23H5.74824C5.14794 23.0001 4.57029 22.7702 4.13354 22.3573C3.69678 21.9445 3.43394 21.3798 3.39882 20.779L2.45882 4.71795H0V3.53846C0 3.38205 0.0619747 3.23205 0.17229 3.12145C0.282606 3.01085 0.432226 2.94872 0.588235 2.94872H19.4118C19.5678 2.94872 19.7174 3.01085 19.8277 3.12145C19.938 3.23205 20 3.38205 20 3.53846V4.71795H17.5435ZM7.64706 0H12.3529C12.509 0 12.6586 0.0621336 12.7689 0.172732C12.8792 0.28333 12.9412 0.433334 12.9412 0.589744V1.76923H7.05882V0.589744C7.05882 0.433334 7.1208 0.28333 7.23111 0.172732C7.34143 0.0621336 7.49105 0 7.64706 0ZM6.47059 7.66667L7.05882 18.2821H8.82353L8.35294 7.66667H6.47059ZM11.7647 7.66667L11.1765 18.2821H12.9412L13.5294 7.66667H11.7647Z" fill="#666666"/>
</svg>
