<svg width="29" height="29" viewBox="0 0 29 29" fill="none" xmlns="http://www.w3.org/2000/svg">
<path d="M26.82 14.7916C26.82 13.8816 26.7383 13.0066 26.5867 12.1666H14.5V17.1308H21.4067C21.1092 18.735 20.205 20.0941 18.8458 21.0041V24.2241H22.9933C25.42 21.99 26.82 18.7 26.82 14.7916Z" fill="#4285F4"/>
<path d="M14.5 27.3334C17.965 27.3334 20.87 26.1842 22.9933 24.2242L18.8458 21.0042C17.6966 21.7742 16.2266 22.2292 14.5 22.2292C11.1574 22.2292 8.32828 19.9717 7.31912 16.9384H3.03162V20.2634C5.14328 24.4575 9.48328 27.3334 14.5 27.3334Z" fill="#34A853"/>
<path d="M7.31913 16.9384C7.06246 16.1684 6.91663 15.3459 6.91663 14.5C6.91663 13.6542 7.06246 12.8317 7.31913 12.0617V8.73669H3.03163C2.13329 10.525 1.66583 12.4987 1.66663 14.5C1.66663 16.5709 2.16246 18.5309 3.03163 20.2634L7.31913 16.9384Z" fill="#FBBC05"/>
<path d="M14.4999 6.77079C16.3841 6.77079 18.0758 7.41829 19.4058 8.68996L23.0866 5.00913C20.8641 2.93829 17.9591 1.66663 14.4999 1.66663C9.48328 1.66663 5.14328 4.54246 3.03162 8.73663L7.31912 12.0616C8.32828 9.02829 11.1574 6.77079 14.4999 6.77079Z" fill="#EA4335"/>
</svg>
