<svg width="26" height="26" viewBox="0 0 26 26" fill="none" xmlns="http://www.w3.org/2000/svg">
<path d="M17.3715 3.26627C17.9548 2.68279 18.7382 2.34301 19.5629 2.31585C20.3875 2.28869 21.1916 2.57618 21.8121 3.12002L21.9681 3.26627L22.734 4.03219C23.3172 4.61548 23.6567 5.39869 23.6839 6.22306C23.711 7.04743 23.4237 7.85128 22.8802 8.47169L22.734 8.62769L10.5876 20.7751C10.4159 20.9468 10.2079 21.0779 9.97881 21.1586L9.80331 21.2095L4.97814 22.3232C4.80908 22.3625 4.63304 22.3606 4.46485 22.3177C4.29666 22.2748 4.14125 22.1921 4.0117 22.0765C3.88216 21.961 3.78227 21.816 3.72045 21.6538C3.65863 21.4916 3.63669 21.317 3.65648 21.1445L3.67814 21.0221L4.79073 16.1959C4.84569 15.9591 4.95305 15.7378 5.10489 15.548L5.22514 15.4126L17.3715 3.26627ZM16.6056 7.09586L6.86639 16.835L6.17739 19.8229L9.16523 19.1328L18.9044 9.39361L16.6056 7.09586ZM20.4362 4.79811C20.2497 4.61158 20.0015 4.49953 19.7382 4.48298C19.4749 4.46642 19.2147 4.5465 19.0062 4.70819L18.9044 4.79811L18.1374 5.56402L20.4362 7.86177L21.2021 7.09586C21.3887 6.90931 21.5007 6.66112 21.5173 6.39784C21.5338 6.13457 21.4537 5.87429 21.2921 5.66586L21.2021 5.56402L20.4362 4.79811Z" fill="#666666"/>
</svg>
