<svg width="20" height="17" viewBox="0 0 20 17" fill="none" xmlns="http://www.w3.org/2000/svg">
<path d="M6.0006 8C7.06157 8 8.07909 7.57857 8.82931 6.82843C9.57953 6.07828 10.001 5.06087 10.001 4C10.001 2.93913 9.57953 1.92172 8.82931 1.17157C8.07909 0.421427 7.06157 0 6.0006 0C4.93963 0 3.92211 0.421427 3.17189 1.17157C2.42167 1.92172 2.0002 2.93913 2.0002 4C2.0002 5.06087 2.42167 6.07828 3.17189 6.82843C3.92211 7.57857 4.93963 8 6.0006 8ZM15.0015 8C15.7972 8 16.5604 7.68393 17.123 7.12132C17.6857 6.55871 18.0018 5.79565 18.0018 5C18.0018 4.20435 17.6857 3.44129 17.123 2.87868C16.5604 2.31607 15.7972 2 15.0015 2C14.2058 2 13.4426 2.31607 12.88 2.87868C12.3173 3.44129 12.0012 4.20435 12.0012 5C12.0012 5.79565 12.3173 6.55871 12.88 7.12132C13.4426 7.68393 14.2058 8 15.0015 8ZM2.50025 10C1.12011 10 0 11.12 0 12.5C0 12.5 0 17 6.0006 17C10.7571 17 11.7432 14.172 11.9472 13C12.0012 12.694 12.0012 12.5 12.0012 12.5C12.0012 11.12 10.8811 10 9.50095 10H2.50025ZM13.9934 13.2C13.9894 13.28 13.9814 13.3747 13.9694 13.484C13.859 14.3086 13.5725 15.0999 13.1293 15.804C13.6594 15.926 14.2774 16 14.9995 16C20 16 20 12.5 20 12.5C20 11.12 18.8799 10 17.4998 10H13.2413C13.7214 10.716 13.9994 11.574 13.9994 12.5V13L13.9934 13.2Z" fill="#505050"/>
</svg>
